# xmcd CD database file
#
# Track frame offsets:
#	150
#	18195
#	31480
#	48490
#	66332
#	86000
#	103120
#	122767
#	140782
#
# Disc length: 2200 seconds
#
# Revision: 4
# Processed by: cddbd v1.5.2PL0 Copyright (c) Steve Scherf et al.
# Submitted via: CDex 1.51
#
DISCID=7e089609
DTITLE=Albert King - Lovejoy
DYEAR=1900
DGENRE=Blues
TTITLE0=Honky Tonk Woman
TTITLE1=Bay Area Blues
TTITLE2=Corina Corina
TTITLE3=She Caught The Katy And Left Me A Mule To Ride
TTITLE4=For The Love Of A Woman
TTITLE5=Lovejoy, Ill.
TTITLE6=Everybody Wants To Go To Heaven
TTITLE7=Going Back To Iuka
TTITLE8=Like A Road Leading Home
EXTD=
EXTT0=
EXTT1=
EXTT2=
EXTT3=
EXTT4=
EXTT5=
EXTT6=
EXTT7=
EXTT8=
PLAYORDER=
